<?xml version="1.0" encoding="UTF-8"?>
<svg xmlns="http://www.w3.org/2000/svg" xmlns:xlink="http://www.w3.org/1999/xlink" width="28pt" height="28pt" viewBox="0 0 28 28" version="1.1">
<g id="surface1">
<path style=" stroke:none;fill-rule:nonzero;fill:rgb(11.764706%,83.921569%,53.333333%);fill-opacity:1;" d="M 3.242188 14.027344 C 3.242188 17.625 5.03125 20.804688 7.765625 22.726562 C 8.246094 23.066406 8.273438 23.769531 7.808594 24.132812 L 7.796875 24.144531 C 7.496094 24.382812 7.070312 24.398438 6.757812 24.175781 C 3.5625 21.933594 1.476562 18.222656 1.476562 14.027344 C 1.476562 7.21875 7.113281 1.691406 13.90625 1.632812 L 13.90625 3.402344 C 8.085938 3.457031 3.242188 8.195312 3.242188 14.027344 Z M 3.242188 14.027344 "/>
<path style=" stroke:none;fill-rule:nonzero;fill:rgb(10.196078%,72.54902%,45.882353%);fill-opacity:1;" d="M 14.230469 0.0546875 L 17.476562 2.273438 C 17.652344 2.394531 17.652344 2.648438 17.476562 2.769531 L 14.230469 4.988281 C 14.03125 5.125 13.761719 4.984375 13.761719 4.742188 L 13.761719 0.300781 C 13.761719 0.0585938 14.03125 -0.0820312 14.230469 0.0546875 Z M 14.230469 0.0546875 "/>
<path style=" stroke:none;fill-rule:nonzero;fill:rgb(11.764706%,83.921569%,53.333333%);fill-opacity:1;" d="M 24.738281 13.972656 C 24.738281 10.375 22.953125 7.195312 20.21875 5.273438 C 19.734375 4.933594 19.710938 4.230469 20.171875 3.867188 L 20.1875 3.855469 C 20.488281 3.617188 20.910156 3.601562 21.226562 3.824219 C 24.417969 6.066406 26.507812 9.777344 26.507812 13.972656 C 26.507812 20.78125 20.878906 26.308594 14.085938 26.367188 L 14.085938 24.597656 C 19.90625 24.542969 24.738281 19.804688 24.738281 13.972656 Z M 24.738281 13.972656 "/>
<path style=" stroke:none;fill-rule:nonzero;fill:rgb(10.196078%,72.54902%,45.882353%);fill-opacity:1;" d="M 13.75 27.945312 L 10.503906 25.726562 C 10.332031 25.605469 10.332031 25.351562 10.503906 25.230469 L 13.75 23.011719 C 13.949219 22.875 14.21875 23.015625 14.21875 23.257812 L 14.21875 27.699219 C 14.21875 27.941406 13.949219 28.082031 13.75 27.945312 Z M 13.75 27.945312 "/>
<path style=" stroke:none;fill-rule:nonzero;fill:rgb(11.764706%,83.921569%,53.333333%);fill-opacity:1;" d="M 19.503906 12.621094 L 14.183594 17.035156 L 12.84375 18.144531 C 12.527344 18.40625 12.128906 18.550781 11.722656 18.550781 C 11.652344 18.550781 11.585938 18.546875 11.515625 18.539062 C 11.042969 18.480469 10.605469 18.230469 10.320312 17.847656 L 8.25 15.089844 C 7.785156 14.46875 7.910156 13.585938 8.535156 13.117188 C 9.15625 12.648438 10.039062 12.777344 10.507812 13.398438 L 11.902344 15.261719 L 11.914062 15.25 L 17.703125 10.453125 C 18.300781 9.953125 19.191406 10.039062 19.6875 10.636719 C 20.1875 11.238281 20.101562 12.125 19.503906 12.621094 Z M 19.503906 12.621094 "/>
<path style=" stroke:none;fill-rule:nonzero;fill:rgb(20.784314%,88.627451%,59.607843%);fill-opacity:1;" d="M 19.503906 12.621094 L 14.183594 17.035156 C 13.316406 16.597656 12.550781 16 11.914062 15.25 L 17.703125 10.453125 C 18.300781 9.953125 19.191406 10.039062 19.6875 10.636719 C 20.1875 11.238281 20.101562 12.125 19.503906 12.621094 Z M 19.503906 12.621094 "/>
</g>
</svg>
